<svg width="16" height="16" viewBox="0 0 16 16" fill="none" xmlns="http://www.w3.org/2000/svg">
<path d="M0.166504 8.12197C0.170284 9.07221 0.943979 9.85022 1.89477 9.85022C2.84852 9.84904 3.62152 9.07632 3.62304 8.12251V7.87739C3.62584 7.32878 4.22152 6.98896 4.69524 7.26577C4.76807 7.30832 4.83282 7.36349 4.88642 7.42872H6.00405C5.79985 6.67457 5.11594 6.15057 4.33464 6.14966C3.38082 6.15117 2.6081 6.92418 2.60692 7.87793V8.12197C2.60632 8.51519 2.28739 8.83357 1.89422 8.83357C1.50144 8.83297 1.18322 8.51476 1.18262 8.12197C1.18262 8.00956 1.09148 7.91843 0.979074 7.91843H0.369511C0.257264 7.91874 0.166504 8.00977 0.166504 8.12197ZM6.7799 9.85022C5.99945 9.84731 5.317 9.32371 5.1121 8.57064H6.2281C6.57165 8.99626 7.24709 8.89037 7.44389 8.38004C7.47559 8.29787 7.49172 8.21057 7.4915 8.12251V7.87739C7.49297 6.92363 8.26595 6.15086 9.21977 6.14966C10.1608 6.14966 10.9281 6.90554 10.9475 7.84121L10.9529 8.12197C10.9557 8.67062 11.5514 9.01039 12.0251 8.73364C12.0979 8.69109 12.1627 8.63586 12.2163 8.57064H13.3339C13.13 9.32484 12.4463 9.84909 11.665 9.85022C10.7143 9.85022 9.94055 9.07167 9.93677 8.12251L9.93137 7.86874V7.85796C9.91999 7.47304 9.60484 7.16676 9.21977 7.16633C8.82699 7.16691 8.50875 7.48519 8.50817 7.87793V8.12197C8.50697 9.07599 7.73387 9.84904 6.7799 9.85022ZM13.5531 7.42926C13.8967 7.00369 14.5721 7.10957 14.7689 7.61991C14.8006 7.70224 14.8168 7.78971 14.8165 7.87793C14.8165 7.99039 14.9077 8.08147 15.0201 8.08147H15.6302C15.7424 8.08121 15.8332 7.99018 15.8332 7.87793C15.832 6.92396 15.0589 6.15086 14.1049 6.14966C13.3234 6.15064 12.6394 6.67489 12.4355 7.42926H13.5531Z" fill="black"/>
</svg>
