<svg width="16" height="24" viewBox="0 0 16 24" fill="none" xmlns="http://www.w3.org/2000/svg">
<path d="M0 20C0 17.7909 1.79085 16 3.99994 16H7.99988V20C7.99988 22.2091 6.20902 24 3.99994 24C1.79085 24 0 22.2091 0 20Z" fill="#24CB71"/>
<path d="M8 0V8.00002H11.9999C14.209 8.00002 15.9999 6.20914 15.9999 4.00001C15.9999 1.79088 14.209 0 11.9999 0H8Z" fill="#FF7237"/>
<path d="M11.9662 16.0001C14.1754 16.0001 15.9662 14.2092 15.9662 12.0001C15.9662 9.79093 14.1754 8.00006 11.9662 8.00006C9.75714 8.00006 7.96631 9.79093 7.96631 12.0001C7.96631 14.2092 9.75714 16.0001 11.9662 16.0001Z" fill="#00B6FF"/>
<path d="M0 4.00001C0 6.20914 1.79085 8.00002 3.99994 8.00002H7.99988V0H3.99994C1.79085 0 0 1.79088 0 4.00001Z" fill="#FF3737"/>
<path d="M0 12.0001C0 14.2092 1.79085 16.0001 3.99994 16.0001H7.99988V8.00006H3.99994C1.79085 8.00006 0 9.79095 0 12.0001Z" fill="#874FFF"/>
</svg>
